<?xml version="1.0" standalone="no"?>
<!DOCTYPE svg PUBLIC "-//W3C//DTD SVG 1.1//EN" "http://www.w3.org/Graphics/SVG/1.1/DTD/svg11.dtd" >
<svg xmlns="http://www.w3.org/2000/svg">
<metadata></metadata>
<defs>
<font id="abolitionsharp" horiz-adv-x="718" >
<font-face units-per-em="2048" ascent="1638" descent="-410" />
<missing-glyph horiz-adv-x="450" />
<glyph horiz-adv-x="2048" />
<glyph horiz-adv-x="2048" />
<glyph unicode="&#xd;" horiz-adv-x="2048" />
<glyph unicode=" "  horiz-adv-x="450" />
<glyph unicode="&#x09;" horiz-adv-x="450" />
<glyph unicode="&#xa0;" horiz-adv-x="450" />
<glyph unicode="!" horiz-adv-x="405" d="M68 68v135l67 67h135l68 -67v-135l-68 -68h-135zM106 922v634h193v-634l-29 -539h-135z" />
<glyph unicode="&#x22;" horiz-adv-x="653" d="M57 1579l45 45h136l45 -45l-80 -422h-68zM373 1579l45 45h135l45 -45l-80 -422h-67z" />
<glyph unicode="#" horiz-adv-x="1261" d="M23 487l24 195h254l27 192h-256l24 197h256l60 485h194l-61 -485h243l62 485h194l-59 -485h254l-25 -197h-253l-25 -192h254l-25 -195h-256l-59 -487h-195l62 487h-244l-61 -487h-195l59 487h-253zM498 682h243l23 192h-244z" />
<glyph unicode="$" horiz-adv-x="698" d="M57 98v291h195v-170l22 -22h150l22 22v440l-22 23h-268l-99 98v678l99 98h96v146h194v-146h99l98 -98v-291h-197v170l-22 23h-150l-22 -23v-438l22 -22h271l98 -97v-682l-98 -98h-99v-143h-194v143h-96z" />
<glyph unicode="%" horiz-adv-x="868" d="M23 1311v162l86 83h159l84 -83v-162l-84 -86h-159zM90 1337l45 -45h105l45 45v107l-45 45h-105l-45 -45v-107zM262 0l195 1556h196l-196 -1556h-195zM561 86v162l86 84h160l84 -84v-162l-84 -86h-160zM629 113l45 -45h104l45 45v106l-45 45h-104l-45 -45v-106z" />
<glyph unicode="&#x26;" horiz-adv-x="759" d="M57 98v584l97 98l-97 97v581l97 98h389l96 -98v-291h-193v170l-22 23h-152l-22 -23v-438l22 -22h465v-195h-75l-23 -23v-561l-96 -98h-389zM250 219l22 -22h152l22 22v440l-22 23h-152l-22 -23v-440z" />
<glyph unicode="'" horiz-adv-x="337" d="M57 1579l45 45h136l45 -45l-80 -422h-68z" />
<glyph unicode="(" horiz-adv-x="468" d="M68 -98v1751l96 98h270v-195h-149l-23 -22v-1511l23 -23h149v-197h-270z" />
<glyph unicode=")" horiz-adv-x="468" d="M35 0h149l23 23v1511l-23 22h-149v195h270l96 -98v-1751l-96 -99h-270v197z" />
<glyph unicode="*" horiz-adv-x="688" d="M45 1286l45 137l219 -108l-39 241h150l-41 -241l219 108l45 -139l-240 -39l172 -172l-120 -88l-111 217l-113 -217l-116 88l172 172z" />
<glyph unicode="+" horiz-adv-x="811" d="M113 682v195h196v196h193v-196h196v-195h-196v-195h-193v195h-196z" />
<glyph unicode="," horiz-adv-x="382" d="M57 68v135l68 67h135l68 -67v-250l-82 -82l-121 -68v72l80 82v27l-17 16h-63z" />
<glyph unicode="-" horiz-adv-x="720" d="M68 680v194h585v-194h-585z" />
<glyph unicode="." horiz-adv-x="382" d="M57 68v135l68 67h135l68 -67v-135l-68 -68h-135z" />
<glyph unicode="/" horiz-adv-x="432" d="M23 0l194 1556h193l-193 -1556h-194z" />
<glyph unicode="0" d="M68 96v1364l96 96h391l96 -96v-1364l-96 -96h-391zM262 217l23 -22h147l23 22v1120l-23 23h-147l-23 -23v-1120z" />
<glyph unicode="1" horiz-adv-x="395" d="M35 1315l71 244h222v-1559h-197v1315h-96z" />
<glyph unicode="2" horiz-adv-x="696" d="M57 0v778l97 96h270l22 23v440l-22 23h-152l-22 -23v-170h-193v291l97 98h389l96 -98v-680l-96 -98h-271l-22 -23v-460h196v192h193v-389h-582z" />
<glyph unicode="3" horiz-adv-x="675" d="M35 1167l2 291l96 98h389l99 -98v-584l-99 -96l99 -98v-582l-99 -98h-389l-96 98v291h192v-170l23 -22h149l23 22v438l-23 23h-172v194h172l23 23v440l-23 23h-149l-23 -23v-170h-194z" />
<glyph unicode="4" horiz-adv-x="696" d="M45 778v778h197v-659l22 -23h170v682h195v-1556h-195v680h-293z" />
<glyph unicode="5" horiz-adv-x="696" d="M57 98v291h193v-170l22 -22h152l22 22v438l-22 23h-270l-97 98v778h582v-389h-193v193h-196v-463l22 -23h271l96 -96v-680l-96 -98h-389z" />
<glyph unicode="6" horiz-adv-x="696" d="M57 98v1360l97 98h389l96 -98v-291h-193v170l-22 23h-152l-22 -23v-440l22 -23h271l96 -96v-680l-96 -98h-389zM250 219l22 -22h152l22 22v438l-22 23h-152l-22 -23v-438z" />
<glyph unicode="7" horiz-adv-x="638" d="M35 0l379 1360h-379v196h581v-196l-383 -1360h-198z" />
<glyph unicode="8" horiz-adv-x="698" d="M57 98v582l97 98l-97 96v584l99 98h389l98 -98v-584l-98 -96l98 -98v-582l-98 -98h-389zM252 219l22 -22h150l22 22v438l-22 23h-150l-22 -23v-438zM252 897l22 -23h150l22 23v440l-22 23h-150l-22 -23v-440z" />
<glyph unicode="9" horiz-adv-x="696" d="M57 98v291h193v-170l22 -22h150l22 22v438l-22 23h-268l-97 98v680l97 98h389l96 -98v-1360l-96 -98h-389zM250 897l22 -23h150l22 23v440l-22 23h-150l-22 -23v-440z" />
<glyph unicode=":" horiz-adv-x="382" d="M57 508v135l68 68h135l68 -68v-135l-68 -68h-135zM57 922v135l68 67h135l68 -67v-135l-68 -68h-135z" />
<glyph unicode=";" horiz-adv-x="382" d="M57 508v135l68 68h135l68 -68v-135v-117l-82 -80l-121 -67v71l80 82v27l-17 16h-63zM57 922v135l68 67h135l68 -67v-135l-68 -68h-135z" />
<glyph unicode="&#x3c;" horiz-adv-x="643" d="M68 778l473 -643l80 80l-310 563l310 565l-80 78z" />
<glyph unicode="=" horiz-adv-x="811" d="M113 487v193h585v-193h-585zM113 877v194h585v-194h-585z" />
<glyph unicode="&#x3e;" horiz-adv-x="643" d="M23 215l79 -80l473 643l-473 643l-79 -78l331 -565z" />
<glyph unicode="?" d="M68 1167v291l96 98h391l96 -98v-678l-96 -98h-125l-22 -23v-118l-29 -158h-135l-29 158v239l96 97h123l23 22v438l-23 23h-147l-23 -23v-170h-196zM176 68v135l68 67h135l67 -67v-135l-67 -68h-135z" />
<glyph unicode="@" horiz-adv-x="1243" d="M135 -98v1558l96 96h781l96 -96v-1169l-96 -96h-539l-45 45v882l45 45h297l45 -45v-760l23 -22h55l22 22v975l-22 23h-541l-22 -23v-1314l22 -23h756v-197h-877zM571 362l23 -22h55l23 22v635l-23 23h-55l-23 -23v-635z" />
<glyph unicode="A" horiz-adv-x="770" d="M18 0l269 1556h192l273 -1556h-193l-70 389h-213l-65 -389h-193zM309 586h148l-74 436z" />
<glyph unicode="B" horiz-adv-x="712" d="M68 0v1556h487l96 -96v-583l-98 -97l98 -98v-586l-96 -96h-487zM264 197h170l23 22v440l-23 23h-170v-485zM264 877h170l23 22v442l-23 23h-170v-487z" />
<glyph unicode="C" horiz-adv-x="702" d="M68 96v1364l96 96h391l96 -96v-291h-194v172l-23 23h-149l-23 -23v-1122l23 -22h149l23 22v170h194v-293l-96 -96h-391z" />
<glyph unicode="D" horiz-adv-x="720" d="M68 0v1556h489l96 -96v-1364l-96 -96h-489zM264 197h170l23 22v1122l-23 23h-170v-1167z" />
<glyph unicode="E" horiz-adv-x="671" d="M68 0v1556h559v-192h-365v-487h195v-195h-195v-485h365v-197h-559z" />
<glyph unicode="F" horiz-adv-x="659" d="M68 0v1556h559v-192h-365v-487h193v-195h-193v-682h-194z" />
<glyph unicode="G" d="M68 96v1364l96 96h391l96 -96v-291h-194v172l-23 23h-147l-23 -23v-1122l23 -22h147l23 22v365h-95l-2 196h291v-684l-96 -96h-391z" />
<glyph unicode="H" d="M68 0v1556h194v-682h193v682h196v-1556h-196v680h-193v-680h-194z" />
<glyph unicode="I" horiz-adv-x="329" d="M68 0v1556h194v-1556h-194z" />
<glyph unicode="J" horiz-adv-x="673" d="M23 96v391h194v-270l23 -22h149l23 22v1339h194v-1460l-96 -96h-391z" />
<glyph unicode="K" horiz-adv-x="747" d="M68 0v1556h194v-638l258 638h209l-289 -702l285 -854h-195l-196 590l-72 -176v-414h-194z" />
<glyph unicode="L" horiz-adv-x="649" d="M68 0v1556h196v-1361h363v-195h-559z" />
<glyph unicode="M" horiz-adv-x="1026" d="M68 0v1556h194l252 -806l250 806h194v-1556h-194v954l-176 -565h-148l-178 565v-954h-194z" />
<glyph unicode="N" horiz-adv-x="763" d="M68 0v1556h194l240 -913v913h194v-1556h-194l-240 913v-913h-194z" />
<glyph unicode="O" d="M68 96v1364l96 96h391l96 -96v-1364l-96 -96h-391zM262 217l23 -22h147l23 22v1120l-23 23h-147l-23 -23v-1120z" />
<glyph unicode="P" horiz-adv-x="696" d="M68 0v1556h487l96 -96v-682l-96 -98h-293v-680h-194zM262 874h170l23 23v440l-23 23h-170v-486z" />
<glyph unicode="Q" horiz-adv-x="720" d="M68 96v1364l98 96h389l98 -96v-1364l-98 -96h-98v-197h-193v197h-98zM264 217l23 -22h147l23 22v1120l-23 23h-147l-23 -23v-1120z" />
<glyph unicode="R" horiz-adv-x="706" d="M68 0v1556h487l96 -96v-682l-96 -98l96 -680h-194l-99 680h-96v-680h-194zM262 874h172l23 23v440l-23 23h-172v-486z" />
<glyph unicode="S" horiz-adv-x="698" d="M57 96v291h195v-170l22 -22h150l22 22v440l-22 23h-268l-99 98v682l99 96h389l98 -96v-293h-197v170l-22 23h-150l-22 -23v-440l22 -23h271l98 -96v-682l-98 -96h-389z" />
<glyph unicode="T" horiz-adv-x="661" d="M18 1360v196h627v-196h-217v-1360h-195v1360h-215z" />
<glyph unicode="U" d="M68 96v1460h194v-1339l23 -22h149l23 22v1339h194v-1460l-96 -96h-391z" />
<glyph unicode="V" horiz-adv-x="720" d="M18 1556h193l149 -1017l150 1017h192l-245 -1556h-193z" />
<glyph unicode="W" horiz-adv-x="1212" d="M18 1556h193l149 -1017l150 1017h192l150 -1017l147 1017h195l-246 -1556h-192l-150 942l-149 -942h-193z" />
<glyph unicode="X" horiz-adv-x="714" d="M18 0l207 780l-207 776h215l125 -503l121 503h217l-207 -776l207 -780h-217l-121 508l-125 -508h-215z" />
<glyph unicode="Y" horiz-adv-x="761" d="M18 1556h215l148 -559l145 559h217l-266 -882v-674h-192v674z" />
<glyph unicode="Z" horiz-adv-x="673" d="M45 0v197l365 1163h-344l2 196h561v-192l-365 -1167h342l-2 -197h-559z" />
<glyph unicode="[" horiz-adv-x="468" d="M68 -197v1948h366v-195h-172v-1556h172v-197h-366z" />
<glyph unicode="\" horiz-adv-x="432" d="M23 1556l194 -1556h193l-193 1556h-194z" />
<glyph unicode="]" horiz-adv-x="468" d="M35 0h172v1556h-172v195h366v-1948h-366v197z" />
<glyph unicode="^" horiz-adv-x="991" d="M45 1270l68 -68l383 174l383 -174l67 68l-450 286z" />
<glyph unicode="_" horiz-adv-x="901" d="M68 0h766v-197h-766v197z" />
<glyph unicode="`" horiz-adv-x="813" d="M225 1923l103 117l92 -55l135 -275l-59 -27z" />
<glyph unicode="a" horiz-adv-x="770" d="M18 0l269 1556h192l273 -1556h-193l-70 389h-213l-65 -389h-193zM309 586h148l-74 436z" />
<glyph unicode="b" horiz-adv-x="712" d="M68 0v1556h487l96 -96v-583l-98 -97l98 -98v-586l-96 -96h-487zM264 197h170l23 22v440l-23 23h-170v-485zM264 877h170l23 22v442l-23 23h-170v-487z" />
<glyph unicode="c" horiz-adv-x="702" d="M68 96v1364l96 96h391l96 -96v-291h-194v172l-23 23h-149l-23 -23v-1122l23 -22h149l23 22v170h194v-293l-96 -96h-391z" />
<glyph unicode="d" horiz-adv-x="720" d="M68 0v1556h489l96 -96v-1364l-96 -96h-489zM264 197h170l23 22v1122l-23 23h-170v-1167z" />
<glyph unicode="e" horiz-adv-x="671" d="M68 0v1556h559v-192h-365v-487h195v-195h-195v-485h365v-197h-559z" />
<glyph unicode="f" horiz-adv-x="659" d="M68 0v1556h559v-192h-365v-487h193v-195h-193v-682h-194z" />
<glyph unicode="g" d="M68 96v1364l96 96h391l96 -96v-291h-194v172l-23 23h-147l-23 -23v-1122l23 -22h147l23 22v365h-95l-2 196h291v-684l-96 -96h-391z" />
<glyph unicode="h" d="M68 0v1556h194v-682h193v682h196v-1556h-196v680h-193v-680h-194z" />
<glyph unicode="i" horiz-adv-x="329" d="M68 0v1556h194v-1556h-194z" />
<glyph unicode="j" horiz-adv-x="673" d="M23 96v391h194v-270l23 -22h149l23 22v1339h194v-1460l-96 -96h-391z" />
<glyph unicode="k" horiz-adv-x="747" d="M68 0v1556h194v-638l258 638h209l-289 -702l285 -854h-195l-196 590l-72 -176v-414h-194z" />
<glyph unicode="l" horiz-adv-x="649" d="M68 0v1556h196v-1361h363v-195h-559z" />
<glyph unicode="m" horiz-adv-x="1026" d="M68 0v1556h194l252 -677l250 677h194v-1556h-194v1008l-201 -555h-98l-203 555v-1008h-194z" />
<glyph unicode="n" horiz-adv-x="763" d="M68 0v1556h194l240 -913v913h194v-1556h-194l-240 913v-913h-194z" />
<glyph unicode="o" d="M68 96v1364l96 96h391l96 -96v-1364l-96 -96h-391zM262 217l23 -22h147l23 22v1120l-23 23h-147l-23 -23v-1120z" />
<glyph unicode="p" horiz-adv-x="696" d="M68 0v1556h487l96 -96v-682l-96 -98h-293v-680h-194zM262 874h170l23 23v440l-23 23h-170v-486z" />
<glyph unicode="q" horiz-adv-x="720" d="M68 96v1364l98 96h389l98 -96v-1364l-98 -96h-76l-22 -23v-174h-193v174l-22 23h-76zM264 217l23 -22h147l23 22v1120l-23 23h-147l-23 -23v-1120z" />
<glyph unicode="r" horiz-adv-x="706" d="M68 0v1556h487l96 -96v-682l-96 -98l96 -680h-194l-99 680h-96v-680h-194zM262 874h172l23 23v440l-23 23h-172v-486z" />
<glyph unicode="s" horiz-adv-x="698" d="M57 96v291h195v-170l22 -22h150l22 22v440l-22 23h-268l-99 98v682l99 96h389l98 -96v-293h-197v170l-22 23h-150l-22 -23v-440l22 -23h271l98 -96v-682l-98 -96h-389z" />
<glyph unicode="t" horiz-adv-x="661" d="M18 1360v196h627v-196h-217v-1360h-195v1360h-215z" />
<glyph unicode="u" d="M68 96v1460h194v-1339l23 -22h149l23 22v1339h194v-1460l-96 -96h-391z" />
<glyph unicode="v" horiz-adv-x="720" d="M18 1556h193l149 -1017l150 1017h192l-245 -1556h-193z" />
<glyph unicode="w" horiz-adv-x="1212" d="M18 1556h193l149 -1017l150 1017h192l150 -1017l147 1017h195l-246 -1556h-192l-150 942l-149 -942h-193z" />
<glyph unicode="x" horiz-adv-x="714" d="M18 0l207 780l-207 776h215l125 -503l121 503h217l-207 -776l207 -780h-217l-121 508l-125 -508h-215z" />
<glyph unicode="y" horiz-adv-x="761" d="M18 1556h215l148 -559l145 559h217l-266 -882v-674h-192v674z" />
<glyph unicode="z" horiz-adv-x="673" d="M45 0v197l365 1163h-344l2 196h561v-192l-365 -1167h342l-2 -197h-559z" />
<glyph unicode="{" horiz-adv-x="514" d="M23 778l90 90v785l96 98h270v-195h-149l-23 -22v-666l-90 -90l90 -90v-665l23 -23h149v-197h-270l-96 99v786z" />
<glyph unicode="|" horiz-adv-x="329" d="M68 -197v1950h194v-1950h-194z" />
<glyph unicode="}" horiz-adv-x="514" d="M35 0h149l23 23v665l90 90l-90 90v666l-23 22h-149v195h270l96 -98v-785l91 -90l-91 -90v-786l-96 -99h-270v197z" />
<glyph unicode="~" horiz-adv-x="552" d="M45 688l74 10l63 29l129 -65h103l63 63l31 90l-51 49l-29 -59l-59 -31l-127 66h-107l-63 -62z" />
<glyph unicode="&#xa1;" horiz-adv-x="405" d="M68 1354v135l67 67h135l68 -67v-135l-68 -68h-135zM106 0v635l29 539h135l29 -539v-635h-193z" />
<glyph unicode="&#xa2;" horiz-adv-x="706" d="M68 322v913l96 96h147v225h99v-225h145l96 -96v-291h-194v172l-23 23h-149l-23 -23v-672l23 -22h149l23 22v170h194v-292l-96 -97h-145v-225h-99v225h-147z" />
<glyph unicode="&#xa3;" horiz-adv-x="788" d="M45 682v195h195v583l96 96h371v-192h-252l-23 -23v-464h195v-195h-195l-147 -485h422v-197h-617v197l150 485h-195z" />
<glyph unicode="&#xa5;" horiz-adv-x="802" d="M35 537v90h270v39l-16 51h-254v90h229l-225 749h215l147 -559l146 559h219l-225 -749h227v-90h-254l-16 -51v-39h270v-90h-270v-537h-193v537h-270z" />
<glyph unicode="&#xa7;" horiz-adv-x="698" d="M57 -96v291h195v-172l22 -23h150l22 23v342l-22 22h-268l-99 98v1172l99 96h389l98 -96v-293h-197v170l-22 22h-150l-22 -22v-340l20 -20h273l98 -97v-1173l-98 -99h-389zM252 604l22 -22h150l22 22v350l-22 23h-150l-22 -23v-350z" />
<glyph unicode="&#xa8;" horiz-adv-x="901" d="M225 1729v104l45 45h105l45 -45v-104l-45 -46h-105zM481 1729v104l45 45h105l45 -45v-104l-45 -46h-105z" />
<glyph unicode="&#xa9;" horiz-adv-x="1320" d="M45 375v809l375 372h481l375 -372v-809l-375 -375h-481zM162 422l301 -301h391l299 301v713l-299 301h-391l-301 -301v-713zM477 369v821l60 57h233l59 -57v-176h-116v104l-15 12h-90l-14 -12v-674l14 -14h90l15 14v101h116v-176l-59 -58h-233z" />
<glyph unicode="&#xaa;" horiz-adv-x="425" d="M68 879v96h290v-96h-290zM68 1120v195l47 49h135l12 10v74l-12 12h-180v96h241l47 -47v-194v-242h-243zM164 1180l12 -11h86v86l-12 11h-74l-12 -11v-75z" />
<glyph unicode="&#xab;" horiz-adv-x="739" d="M45 778l287 -450l67 67l-174 383l174 383l-67 68zM340 778l287 -450l67 67l-174 383l174 383l-67 68z" />
<glyph unicode="&#xad;" horiz-adv-x="720" d="M68 680v194h585v-194h-585z" />
<glyph unicode="&#xae;" horiz-adv-x="1320" d="M45 375v809l375 372h481l375 -372v-809l-375 -375h-481zM162 422l301 -301h391l299 301v713l-299 301h-391l-301 -301v-713zM492 311v934h290l56 -57v-410l-56 -57l58 -410h-115l-63 410h-56v-410h-114zM606 836h107l12 14v266l-12 12h-107v-292z" />
<glyph unicode="&#xaf;" horiz-adv-x="1036" d="M225 1683v193h586v-193h-586z" />
<glyph unicode="&#xb0;" horiz-adv-x="419" d="M45 1311v162l86 83h160l84 -83v-162l-84 -86h-160zM113 1337l45 -45h104l45 45v107l-45 45h-104l-45 -45v-107z" />
<glyph unicode="&#xb4;" horiz-adv-x="813" d="M260 1710l135 275l92 55l101 -117l-271 -240z" />
<glyph unicode="&#xb6;" horiz-adv-x="1058" d="M45 778v682l96 96h850v-1753h-194v1561h-168v-1561h-195v877h-293z" />
<glyph unicode="&#xb7;" horiz-adv-x="382" d="M57 711v135l68 67h135l68 -67v-135l-68 -68h-135z" />
<glyph unicode="&#xb8;" horiz-adv-x="720" d="M260 -225l82 82v80l-63 63h120l64 -63v-80l-49 -62l-72 -45z" />
<glyph unicode="&#xba;" horiz-adv-x="428" d="M68 879v96h292v-96h-292zM68 1120v389l49 47h194l49 -47v-389l-49 -47h-194zM164 1178l12 -11h74l12 11v270l-12 12h-74l-12 -12v-270z" />
<glyph unicode="&#xbb;" horiz-adv-x="739" d="M45 395l68 -67l286 450l-286 451l-68 -68l174 -383zM340 395l68 -67l286 450l-286 451l-68 -68l174 -383z" />
<glyph unicode="&#xbf;" d="M68 98v680l96 96h125l22 23v119l29 158h135l29 -158v-238l-96 -98h-123l-23 -23v-438l23 -22h147l23 22v170h196v-291l-96 -98h-391zM272 1354v135l68 67h135l68 -67v-135l-68 -68h-135z" />
<glyph unicode="&#xc0;" horiz-adv-x="770" d="M18 0l269 1556h192l273 -1556h-193l-70 389h-213l-65 -389h-193zM219 1923l100 117l93 -55l135 -275l-58 -27zM309 586h148l-74 436z" />
<glyph unicode="&#xc1;" horiz-adv-x="770" d="M18 0l269 1556h192l273 -1556h-193l-70 389h-213l-65 -389h-193zM244 1710l135 275l92 55l100 -117l-270 -240zM309 586h148l-74 436z" />
<glyph unicode="&#xc2;" horiz-adv-x="770" d="M18 0l269 1556h192l273 -1556h-193l-70 389h-213l-65 -389h-193zM162 1688h123l84 190h28l84 -190h123l-104 219l-105 104h-22l-107 -104zM309 586h148l-74 436z" />
<glyph unicode="&#xc3;" horiz-adv-x="770" d="M18 0l269 1556h192l273 -1556h-193l-70 389h-213l-65 -389h-193zM152 1735l73 12l64 29l129 -66h102l64 64l28 90l-49 49l-28 -62l-60 -28l-129 65h-104l-64 -63zM309 586h148l-74 436z" />
<glyph unicode="&#xc4;" horiz-adv-x="770" d="M18 0l269 1556h192l273 -1556h-193l-70 389h-213l-65 -389h-193zM158 1729v104l45 45h104l45 -45v-104l-45 -46h-104zM309 586h148l-74 436zM414 1729v104l45 45h104l45 -45v-104l-45 -46h-104z" />
<glyph unicode="&#xc5;" horiz-adv-x="770" d="M18 0l269 1556h192l273 -1556h-193l-70 389h-213l-65 -389h-193zM219 1778v161l86 84h160l82 -84v-161l-82 -86h-160zM287 1804l45 -45h102l45 45v107l-45 45h-102l-45 -45v-107zM309 586h148l-74 436z" />
<glyph unicode="&#xc6;" horiz-adv-x="1163" d="M18 0l543 1556h557v-192h-366v-487h196v-195h-196v-485h366v-197h-559v389h-215l-133 -389h-193zM412 586h147v422z" />
<glyph unicode="&#xc7;" horiz-adv-x="702" d="M68 96v1364l96 96h391l96 -96v-291h-194v172l-23 23h-149l-23 -23v-1122l23 -22h149l23 22v170h194v-293l-96 -96h-154l62 -61v-82l-49 -62l-72 -45l-82 25l82 82v82l-59 61h-119z" />
<glyph unicode="&#xc8;" horiz-adv-x="671" d="M68 0v1556h559v-192h-365v-487h195v-195h-195v-485h365v-197h-559zM164 1923l102 117l92 -55l136 -275l-60 -27z" />
<glyph unicode="&#xc9;" horiz-adv-x="671" d="M68 0v1556h559v-192h-365v-487h195v-195h-195v-485h365v-197h-559zM188 1710l136 275l94 55l100 -117l-270 -240z" />
<glyph unicode="&#xca;" horiz-adv-x="671" d="M68 0v1556h559v-192h-365v-487h195v-195h-195v-485h365v-197h-559zM109 1688h120l86 190h27l86 -190h121l-103 219l-106 104h-23l-106 -104z" />
<glyph unicode="&#xcb;" horiz-adv-x="671" d="M68 0v1556h559v-192h-365v-487h195v-195h-195v-485h365v-197h-559zM104 1729v104l46 45h102l45 -45v-104l-45 -46h-102zM360 1729v104l46 45h104l45 -45v-104l-45 -46h-104z" />
<glyph unicode="&#xcc;" horiz-adv-x="366" d="M-29 1923l101 117l92 -55l135 -275l-57 -27zM92 0v1556h195v-1556h-195z" />
<glyph unicode="&#xcd;" horiz-adv-x="366" d="M68 1710l135 275l92 55l102 -117l-270 -240zM82 0v1556h192v-1556h-192z" />
<glyph unicode="&#xce;" horiz-adv-x="378" d="M-31 1688h121l86 190h27l86 -190h121l-103 219l-106 104h-23l-106 -104zM92 0v1556h195v-1556h-195z" />
<glyph unicode="&#xcf;" horiz-adv-x="378" d="M-37 1729v104l45 45h105l45 -45v-104l-45 -46h-105zM92 0v1556h195v-1556h-195zM221 1729v104l45 45h103l45 -45v-104l-45 -46h-103z" />
<glyph unicode="&#xd0;" horiz-adv-x="761" d="M12 682v195h97v679h489l96 -96v-1364l-96 -96h-489v682h-97zM305 197h170l23 22v1122l-23 23h-170v-487h96v-195h-96v-485z" />
<glyph unicode="&#xd1;" horiz-adv-x="763" d="M68 0v1556h194l240 -913v913h194v-1556h-194l-240 913v-913h-194zM147 1735l74 12l64 29l127 -66h104l64 64l28 90l-49 49l-29 -62l-59 -28l-129 65h-104l-64 -63z" />
<glyph unicode="&#xd2;" d="M68 96v1364l96 96h391l96 -96v-1364l-96 -96h-391zM195 1923l100 117l92 -55l135 -275l-57 -27zM262 217l23 -22h147l23 22v1120l-23 23h-147l-23 -23v-1120z" />
<glyph unicode="&#xd3;" d="M68 96v1364l96 96h391l96 -96v-1364l-96 -96h-391zM219 1710l135 275l92 55l101 -117l-271 -240zM262 217l23 -22h147l23 22v1120l-23 23h-147l-23 -23v-1120z" />
<glyph unicode="&#xd4;" d="M68 96v1364l96 96h391l96 -96v-1364l-96 -96h-391zM137 1688h123l84 190h29l84 -190h123l-105 219l-106 104h-23l-104 -104zM262 217l23 -22h147l23 22v1120l-23 23h-147l-23 -23v-1120z" />
<glyph unicode="&#xd5;" d="M68 96v1364l96 96h391l96 -96v-1364l-96 -96h-391zM137 1735l74 12l63 29l129 -66h105l61 64l31 90l-51 49l-29 -62l-57 -28l-129 65h-107l-63 -63zM262 217l23 -22h147l23 22v1120l-23 23h-147l-23 -23v-1120z" />
<glyph unicode="&#xd6;" d="M68 96v1364l96 96h391l96 -96v-1364l-96 -96h-391zM133 1729v104l45 45h105l45 -45v-104l-45 -46h-105zM262 217l23 -22h147l23 22v1120l-23 23h-147l-23 -23v-1120zM389 1729v104l45 45h105l45 -45v-104l-45 -46h-105z" />
<glyph unicode="&#xd8;" d="M68 96v1364l96 96h307l16 68h136l-27 -111l55 -53v-1364l-96 -96h-307l-17 -68h-135l27 111zM262 647l164 713h-141l-23 -23v-690zM293 195h139l23 22v684z" />
<glyph unicode="&#xd9;" d="M68 96v1460h194v-1339l23 -22h149l23 22v1339h194v-1460l-96 -96h-391zM170 1923l100 117l92 -55l136 -275l-58 -27z" />
<glyph unicode="&#xda;" d="M68 96v1460h194v-1339l23 -22h149l23 22v1339h194v-1460l-96 -96h-391zM240 1710l135 275l92 55l100 -117l-270 -240z" />
<glyph unicode="&#xdb;" d="M68 96v1460h194v-1339l23 -22h149l23 22v1339h194v-1460l-96 -96h-391zM139 1688h123l84 190h29l84 -190h123l-105 219l-104 104h-23l-106 -104z" />
<glyph unicode="&#xdc;" d="M68 96v1460h194v-1339l23 -22h149l23 22v1339h194v-1460l-96 -96h-391zM133 1729v104l45 45h105l45 -45v-104l-45 -46h-105zM391 1729v104l45 45h105l45 -45v-104l-45 -46h-105z" />
<glyph unicode="&#xdd;" horiz-adv-x="761" d="M18 1556h215l148 -559l145 559h217l-266 -882v-674h-192v674zM264 1710l135 275l93 55l100 -117l-270 -240z" />
<glyph unicode="&#xde;" horiz-adv-x="696" d="M68 0v1556h194v-339h293l96 -97v-684l-96 -96h-293v-340h-194zM262 535h170l23 22v440l-23 23h-170v-485z" />
<glyph unicode="&#xdf;" horiz-adv-x="1400" d="M57 96v291h195v-170l22 -22h150l22 22v440l-22 23h-268l-99 98v682l99 96h389l98 -96v-293h-197v170l-22 23h-150l-22 -23v-440l22 -23h271l98 -96v-682l-98 -96h-389zM760 96v291h194v-170l23 -22h149l23 22v440l-23 23h-268l-98 98v682l98 96h389l99 -96v-293h-197v170 l-23 23h-149l-23 -23v-440l23 -23h270l99 -96v-682l-99 -96h-389z" />
<glyph unicode="&#xe0;" horiz-adv-x="770" d="M18 0l269 1556h192l273 -1556h-193l-70 389h-213l-65 -389h-193zM219 1923l100 117l93 -55l135 -275l-58 -27zM309 586h148l-74 436z" />
<glyph unicode="&#xe1;" horiz-adv-x="770" d="M18 0l269 1556h192l273 -1556h-193l-70 389h-213l-65 -389h-193zM244 1710l135 275l92 55l100 -117l-270 -240zM309 586h148l-74 436z" />
<glyph unicode="&#xe2;" horiz-adv-x="770" d="M18 0l269 1556h192l273 -1556h-193l-70 389h-213l-65 -389h-193zM162 1688h123l84 190h28l84 -190h123l-104 219l-105 104h-22l-107 -104zM309 586h148l-74 436z" />
<glyph unicode="&#xe3;" horiz-adv-x="770" d="M18 0l269 1556h192l273 -1556h-193l-70 389h-213l-65 -389h-193zM152 1735l73 12l64 29l129 -66h102l64 64l28 90l-49 49l-28 -62l-60 -28l-129 65h-104l-64 -63zM309 586h148l-74 436z" />
<glyph unicode="&#xe4;" horiz-adv-x="770" d="M18 0l269 1556h192l273 -1556h-193l-70 389h-213l-65 -389h-193zM158 1729v104l45 45h104l45 -45v-104l-45 -46h-104zM309 586h148l-74 436zM414 1729v104l45 45h104l45 -45v-104l-45 -46h-104z" />
<glyph unicode="&#xe5;" horiz-adv-x="770" d="M18 0l269 1556h192l273 -1556h-193l-70 389h-213l-65 -389h-193zM219 1778v161l86 84h160l82 -84v-161l-82 -86h-160zM287 1804l45 -45h102l45 45v107l-45 45h-102l-45 -45v-107zM309 586h148l-74 436z" />
<glyph unicode="&#xe6;" horiz-adv-x="1163" d="M18 0l543 1556h557v-192h-344l-22 -23v-442l22 -22h174v-195h-174l-22 -23v-440l22 -22h344v-197h-559v362l-22 27h-170l-31 -27l-125 -362h-193zM418 602l14 -16h105l22 14v408z" />
<glyph unicode="&#xe7;" horiz-adv-x="702" d="M68 96v1364l96 96h391l96 -96v-291h-194v172l-23 23h-149l-23 -23v-1122l23 -22h149l23 22v170h194v-293l-96 -96h-154l62 -61v-82l-49 -62l-72 -45l-82 25l82 82v82l-59 61h-119z" />
<glyph unicode="&#xe8;" horiz-adv-x="671" d="M68 0v1556h559v-192h-365v-487h195v-195h-195v-485h365v-197h-559zM164 1923l102 117l92 -55l136 -275l-60 -27z" />
<glyph unicode="&#xe9;" horiz-adv-x="671" d="M68 0v1556h559v-192h-365v-487h195v-195h-195v-485h365v-197h-559zM188 1710l136 275l94 55l100 -117l-270 -240z" />
<glyph unicode="&#xea;" horiz-adv-x="671" d="M68 0v1556h559v-192h-365v-487h195v-195h-195v-485h365v-197h-559zM109 1688h120l86 190h27l86 -190h121l-103 219l-106 104h-23l-106 -104z" />
<glyph unicode="&#xeb;" horiz-adv-x="671" d="M68 0v1556h559v-192h-365v-487h195v-195h-195v-485h365v-197h-559zM104 1729v104l46 45h102l45 -45v-104l-45 -46h-102zM360 1729v104l46 45h104l45 -45v-104l-45 -46h-104z" />
<glyph unicode="&#xec;" horiz-adv-x="366" d="M-29 1923l101 117l92 -55l135 -275l-57 -27zM92 0v1556h195v-1556h-195z" />
<glyph unicode="&#xed;" horiz-adv-x="366" d="M68 1710l135 275l92 55l102 -117l-270 -240zM82 0v1556h192v-1556h-192z" />
<glyph unicode="&#xee;" horiz-adv-x="378" d="M-31 1688h121l86 190h27l86 -190h121l-103 219l-106 104h-23l-106 -104zM92 0v1556h195v-1556h-195z" />
<glyph unicode="&#xef;" horiz-adv-x="378" d="M-37 1729v104l45 45h105l45 -45v-104l-45 -46h-105zM92 0v1556h195v-1556h-195zM221 1729v104l45 45h103l45 -45v-104l-45 -46h-103z" />
<glyph unicode="&#xf0;" horiz-adv-x="761" d="M12 682v195h97v679h489l96 -96v-1364l-96 -96h-489v682h-97zM305 197h170l23 22v1122l-23 23h-170v-487h96v-195h-96v-485z" />
<glyph unicode="&#xf1;" horiz-adv-x="763" d="M68 0v1556h194l240 -913v913h194v-1556h-194l-240 913v-913h-194zM147 1735l74 12l64 29l127 -66h104l64 64l28 90l-49 49l-29 -62l-59 -28l-129 65h-104l-64 -63z" />
<glyph unicode="&#xf2;" d="M68 96v1364l96 96h391l96 -96v-1364l-96 -96h-391zM195 1923l100 117l92 -55l135 -275l-57 -27zM262 217l23 -22h147l23 22v1120l-23 23h-147l-23 -23v-1120z" />
<glyph unicode="&#xf3;" d="M68 96v1364l96 96h391l96 -96v-1364l-96 -96h-391zM219 1710l135 275l92 55l101 -117l-271 -240zM262 217l23 -22h147l23 22v1120l-23 23h-147l-23 -23v-1120z" />
<glyph unicode="&#xf4;" d="M68 96v1364l96 96h391l96 -96v-1364l-96 -96h-391zM137 1688h123l84 190h29l84 -190h123l-105 219l-106 104h-23l-104 -104zM262 217l23 -22h147l23 22v1120l-23 23h-147l-23 -23v-1120z" />
<glyph unicode="&#xf5;" d="M68 96v1364l96 96h391l96 -96v-1364l-96 -96h-391zM137 1735l74 12l63 29l129 -66h105l61 64l31 90l-51 49l-29 -62l-57 -28l-129 65h-107l-63 -63zM262 217l23 -22h147l23 22v1120l-23 23h-147l-23 -23v-1120z" />
<glyph unicode="&#xf6;" d="M68 96v1364l96 96h391l96 -96v-1364l-96 -96h-391zM133 1729v104l45 45h105l45 -45v-104l-45 -46h-105zM262 217l23 -22h147l23 22v1120l-23 23h-147l-23 -23v-1120zM389 1729v104l45 45h105l45 -45v-104l-45 -46h-105z" />
<glyph unicode="&#xf7;" horiz-adv-x="948" d="M113 680v194h723v-194h-723zM309 322v163l86 82h160l82 -82v-163l-82 -84h-160zM309 1073v162l86 84h160l82 -84v-162l-82 -86h-160zM377 350l45 -45h102l45 45v105l-45 45h-102l-45 -45v-105zM377 1100l45 -45h102l45 45v106l-45 45h-102l-45 -45v-106z" />
<glyph unicode="&#xf8;" d="M68 96v1364l96 96h307l16 68h136l-27 -111l55 -53v-1364l-96 -96h-307l-17 -68h-135l27 111zM262 647l164 713h-141l-23 -23v-690zM293 195h139l23 22v684z" />
<glyph unicode="&#xf9;" d="M68 96v1460h194v-1339l23 -22h149l23 22v1339h194v-1460l-96 -96h-391zM170 1923l100 117l92 -55l136 -275l-58 -27z" />
<glyph unicode="&#xfa;" d="M68 96v1460h194v-1339l23 -22h149l23 22v1339h194v-1460l-96 -96h-391zM240 1710l135 275l92 55l100 -117l-270 -240z" />
<glyph unicode="&#xfb;" d="M68 96v1460h194v-1339l23 -22h149l23 22v1339h194v-1460l-96 -96h-391zM139 1688h123l84 190h29l84 -190h123l-105 219l-104 104h-23l-106 -104z" />
<glyph unicode="&#xfc;" d="M68 96v1460h194v-1339l23 -22h149l23 22v1339h194v-1460l-96 -96h-391zM133 1729v104l45 45h105l45 -45v-104l-45 -46h-105zM391 1729v104l45 45h105l45 -45v-104l-45 -46h-105z" />
<glyph unicode="&#xfd;" horiz-adv-x="761" d="M18 1556h215l148 -559l145 559h217l-266 -882v-674h-192v674zM264 1710l135 275l93 55l100 -117l-270 -240z" />
<glyph unicode="&#xfe;" horiz-adv-x="696" d="M68 0v1556h194v-339h293l96 -97v-684l-96 -96h-293v-340h-194zM262 535h170l23 22v440l-23 23h-170v-485z" />
<glyph unicode="&#xff;" horiz-adv-x="761" d="M18 1556h215l148 -559l145 559h217l-266 -882v-674h-192v674zM154 1729v104l45 45h102l45 -45v-104l-45 -46h-102zM412 1729v104l45 45h104l45 -45v-104l-45 -46h-104z" />
<glyph unicode="&#x152;" horiz-adv-x="1060" d="M68 96v1364l96 96h852v-192h-365v-487h197v-195h-197v-485h365v-197h-852zM262 217l23 -22h147l23 22v1120l-23 23h-147l-23 -23v-1120z" />
<glyph unicode="&#x153;" horiz-adv-x="1060" d="M68 96v1364l96 96h852v-192h-365v-487h197v-195h-197v-485h365v-197h-852zM262 217l23 -22h147l23 22v1120l-23 23h-147l-23 -23v-1120z" />
<glyph unicode="&#x178;" horiz-adv-x="761" d="M18 1556h215l148 -559l145 559h217l-266 -882v-674h-192v674zM154 1729v104l45 45h102l45 -45v-104l-45 -46h-102zM412 1729v104l45 45h104l45 -45v-104l-45 -46h-104z" />
<glyph unicode="&#x2c6;" horiz-adv-x="892" d="M225 1688h121l86 190h27l86 -190h123l-105 219l-106 104h-23l-104 -104z" />
<glyph unicode="&#x2dc;" horiz-adv-x="913" d="M225 1735l74 12l63 29l130 -66h102l63 64l31 90l-51 49l-29 -62l-59 -28l-127 65h-107l-63 -63z" />
<glyph unicode="&#x2000;" horiz-adv-x="1020" />
<glyph unicode="&#x2001;" horiz-adv-x="2040" />
<glyph unicode="&#x2002;" horiz-adv-x="1020" />
<glyph unicode="&#x2003;" horiz-adv-x="2040" />
<glyph unicode="&#x2004;" horiz-adv-x="680" />
<glyph unicode="&#x2005;" horiz-adv-x="510" />
<glyph unicode="&#x2006;" horiz-adv-x="340" />
<glyph unicode="&#x2007;" horiz-adv-x="340" />
<glyph unicode="&#x2008;" horiz-adv-x="255" />
<glyph unicode="&#x2009;" horiz-adv-x="408" />
<glyph unicode="&#x200a;" horiz-adv-x="113" />
<glyph unicode="&#x2010;" horiz-adv-x="720" d="M68 680v194h585v-194h-585z" />
<glyph unicode="&#x2011;" horiz-adv-x="720" d="M68 680v194h585v-194h-585z" />
<glyph unicode="&#x2012;" horiz-adv-x="720" d="M68 680v194h585v-194h-585z" />
<glyph unicode="&#x2013;" horiz-adv-x="901" d="M68 680v194h766v-194h-766z" />
<glyph unicode="&#x2014;" horiz-adv-x="1081" d="M68 680v194h946v-194h-946z" />
<glyph unicode="&#x2018;" horiz-adv-x="382" d="M57 1225v252l80 79l123 68v-72l-82 -82v-26l17 -17h65l68 -67v-135l-68 -68h-135z" />
<glyph unicode="&#x2019;" horiz-adv-x="382" d="M57 1421v135l68 68h135l68 -68v-249l-82 -82l-121 -68v74l80 80v26l-17 17h-63z" />
<glyph unicode="&#x201a;" horiz-adv-x="382" d="M57 68v135l68 67h135l68 -67v-250l-82 -82l-121 -68v72l80 82v27l-17 16h-63z" />
<glyph unicode="&#x201c;" horiz-adv-x="720" d="M57 1225v252l80 79l123 68v-72l-82 -82v-26l17 -17h65l68 -67v-135l-68 -68h-135zM395 1225v252l80 79l123 68v-72l-82 -82v-26l16 -17h66l68 -67v-135l-68 -68h-135z" />
<glyph unicode="&#x201d;" horiz-adv-x="720" d="M57 1421v135l68 68h135l68 -68v-249l-82 -82l-121 -68v74l80 80v26l-17 17h-63zM395 1421v135l68 68h135l68 -68v-249l-82 -82l-121 -68v74l80 80v26l-17 17h-63z" />
<glyph unicode="&#x201e;" horiz-adv-x="720" d="M57 68v135l68 67h135l68 -67v-250l-82 -82l-121 -68v72l80 82v27l-17 16h-63zM395 68v135l68 67h135l68 -67v-250l-82 -82l-121 -68v72l80 82v27l-17 16h-63z" />
<glyph unicode="&#x2022;" horiz-adv-x="382" d="M57 711v135l68 67h135l68 -67v-135l-68 -68h-135z" />
<glyph unicode="&#x2026;" horiz-adv-x="1103" d="M57 68v135l68 67h135l68 -67v-135l-68 -68h-135zM418 68v135l67 67h136l67 -67v-135l-67 -68h-136zM778 68v135l68 67h135l68 -67v-135l-68 -68h-135z" />
<glyph unicode="&#x202f;" horiz-adv-x="408" />
<glyph unicode="&#x2039;" horiz-adv-x="444" d="M45 778l287 -450l67 67l-174 383l174 383l-67 68z" />
<glyph unicode="&#x203a;" horiz-adv-x="444" d="M45 395l68 -67l286 450l-286 451l-68 -68l174 -383z" />
<glyph unicode="&#x205f;" horiz-adv-x="510" />
<glyph unicode="&#x20ac;" horiz-adv-x="796" d="M12 645l23 90h123v90h-146l23 90h123v545l96 96h391l96 -96v-291h-194v172l-23 23h-149l-23 -23v-426h389l-22 -90h-367v-90h344l-22 -90h-322v-426l23 -22h149l23 22v170h194v-293l-96 -96h-391l-96 96v549h-146z" />
<glyph unicode="&#x2122;" horiz-adv-x="624" d="M45 1495h76v-432h61v432h74v61h-211v-61zM297 1063h61v313l66 -188h31l63 188v-313h62v493h-62l-78 -235l-82 235h-61v-493z" />
<glyph unicode="&#xe000;" horiz-adv-x="1556" d="M0 0v1556h1556v-1556h-1556z" />
</font>
</defs>
</svg>
